<svg xmlns="http://www.w3.org/2000/svg" width="32" height="32" viewBox="0 0 32 32">
  <defs>
    <style>
      .cls-1 {
        fill: #3e9ef5;
      }
    </style>
  </defs>
  <path id="列表" class="cls-1" d="M28.858,32H3.142A3.338,3.338,0,0,1,0,28.48V3.52A3.338,3.338,0,0,1,3.142,0H28.858A3.339,3.339,0,0,1,32,3.52V28.48A3.338,3.338,0,0,1,28.858,32ZM6.256,6.972A1.686,1.686,0,1,0,7.942,8.655,1.67,1.67,0,0,0,6.255,6.97Zm5.943,3.4H25.743a1.686,1.686,0,1,0,0-3.372H12.2a1.692,1.692,0,0,0-1.687,1.687A1.671,1.671,0,0,0,12.2,10.371ZM6.257,14.314A1.687,1.687,0,1,0,7.942,16a1.654,1.654,0,0,0-1.687-1.686Zm19.485,0H12.2a1.687,1.687,0,1,0,0,3.373H25.743a1.687,1.687,0,0,0,0-3.373ZM6.257,21.629a1.651,1.651,0,1,0,1.684,1.684,1.669,1.669,0,0,0-1.684-1.684Zm19.485,0H12.2a1.685,1.685,0,1,0,0,3.37H25.743a1.687,1.687,0,0,0,1.686-1.687A1.706,1.706,0,0,0,25.743,21.629Z"/>
</svg>
