<svg xmlns="http://www.w3.org/2000/svg" width="32" height="32" viewBox="0 0 32 32">
  <defs>
    <style>
      .cls-1 {
        fill: #3e9ef5;
      }
    </style>
  </defs>
  <path id="反馈_1_" data-name="反馈 (1)" class="cls-1" d="M155.472,126.976H136.206a6.5,6.5,0,0,0-6.363,6.6v14.655a6.49,6.49,0,0,0,6.363,6.6h5.447l3.23,3.6a1.348,1.348,0,0,0,1.06.553,1.62,1.62,0,0,0,1.117-.528l3.254-3.617h5.166a6.5,6.5,0,0,0,6.363-6.6V133.572A6.507,6.507,0,0,0,155.472,126.976Zm-15.667,15.4a1.956,1.956,0,0,1-2.844,0,2.141,2.141,0,0,1,0-2.945,1.957,1.957,0,0,1,2.844,0,2.152,2.152,0,0,1,.586,1.472,2.081,2.081,0,0,1-.586,1.472Zm7.4,0a1.956,1.956,0,0,1-2.844,0,2.141,2.141,0,0,1,0-2.945,1.957,1.957,0,0,1,2.844,0,2.141,2.141,0,0,1,0,2.945Zm7.673,0a1.956,1.956,0,0,1-2.844,0,2.141,2.141,0,0,1,0-2.945,1.957,1.957,0,0,1,2.844,0,2.141,2.141,0,0,1,0,2.945Z" transform="translate(-129.843 -126.976)"/>
</svg>
