<svg xmlns="http://www.w3.org/2000/svg" width="32" height="32" viewBox="0 0 32 32">
  <defs>
    <style>
      .cls-1 {
        fill: #fdaa49;
      }
    </style>
  </defs>
  <path id="收_藏" data-name="收 藏" class="cls-1" d="M87.7,111.36a3.079,3.079,0,0,1-1.422-.378l-6.709-3.48-6.745,3.48a2.993,2.993,0,0,1-3.227-.246,3.307,3.307,0,0,1-1.2-3.158l1.385-7.433L64.49,95.039a3.565,3.565,0,0,1-.839-3.291l.018-.038a3.078,3.078,0,0,1,2.5-2.194l7.347-1.381,3.3-6.96a3.118,3.118,0,0,1,2.753-1.816,3.016,3.016,0,0,1,2.753,1.835L85.6,88.117l7.347,1.324a2.994,2.994,0,0,1,2.443,2.213,3.267,3.267,0,0,1-.766,3.272l-.018.019-5.25,5.182,1.331,7.433A3.248,3.248,0,0,1,89.5,110.7,2.808,2.808,0,0,1,87.7,111.36Z" transform="translate(-63.544 -79.36)"/>
</svg>
