<svg xmlns="http://www.w3.org/2000/svg" width="32" height="32" viewBox="0 0 32 32">
  <defs>
    <style>
      .cls-1 {
        fill: #3e9ef5;
      }
    </style>
  </defs>
  <path id="收藏夹" class="cls-1" d="M29.946,32.84H2.218S0,33.216,0,29.974V3.784S.043.871,2.751.871h9.726S13.651.589,14.632,2.28c.938,1.6,1.493,2.631,1.493,2.631a1.464,1.464,0,0,0,1.13.423h12.52s2.218-.282,2.218,2.443V30.139C31.973,30.139,32.314,32.84,29.946,32.84ZM27.9,12.31a1.152,1.152,0,0,0-1.088-1.2H5.226a1.158,1.158,0,0,0-1.13,1.2v.117a1.171,1.171,0,0,0,1.13,1.245H26.811A1.166,1.166,0,0,0,27.9,12.428V12.31Zm0,0" transform="translate(0 -0.853)"/>
</svg>
